#!OML:ASF E:\emotionWalksFemale\Project 1\Capture day 1\Session 1\Female1.ASF
:FULLY-SPECIFIED
:DEGREES
593
root 9.09375 15.0544 13.4863 -181.729 2.97049 -174.637
lowerback 9.05282 3.82784 5.26515
upperback -3.7662 5.88376 0.317421
thorax -8.59699 2.59743 -3.54707
lowerneck -4.16832 -4.7985 -8.74745
upperneck 7.57726 -6.53839 7.40736
head 3.46387 -3.24574 3.369
rclavicle 2.42517e-014 7.15625e-015
rhumerus -20.3456 1.87378 -71.4738
rradius 41.196
rwrist 16.1126
rhand -8.17316 -51.7554
rfingers 7.12502
rthumb 17.7422 -440.966
lclavicle 2.42517e-014 7.15625e-015
lhumerus -67.9481 21.5889 32.8838
lradius 35.0919
lwrist -12.1264
lhand 5.68551 -27.9936
lfingers 7.12502
lthumb 31.0236 -0.596587
rfemur 9.70694 4.28829 38.3548
rtibia 14.5517
rfoot -19.2723 -23.8568
rtoes -1.753
lfemur -32.3989 -3.33929 -16.8707
ltibia 51.0899
lfoot -19.0294 13.636
ltoes -6.59483
594
root 9.10071 15.076 13.3275 -181.522 3.42003 -174.738
lowerback 8.90725 4.01721 5.20927
upperback -3.87047 6.12446 0.26058
thorax -8.60286 2.71585 -3.60331
lowerneck -4.07411 -4.84538 -8.68606
upperneck 7.36617 -6.58921 7.32119
head 3.38439 -3.27164 3.33372
rclavicle 6.92765e-014 8.74653e-015
rhumerus -19.5861 2.27432 -71.2293
rradius 41.546
rwrist 15.7148
rhand -8.92285 -50.6795
rfingers 7.12502
rthumb 17.0207 -439.954
lclavicle 6.92765e-014 8.74653e-015
lhumerus -68.554 21.3143 31.6246
lradius 35.2455
lwrist -11.3486
lhand 6.41826 -27.7268
lfingers 7.12502
lthumb 31.7218 -0.465472
rfemur 11.321 5.12954 38.4969
rtibia 12.3591
rfoot -17.8956 -24.2176
rtoes -1.71119
lfemur -32.4617 -3.60887 -17.0577
ltibia 48.2628
lfoot -18.6237 14.2099
ltoes -7.32092
595
root 9.10997 15.0916 13.1684 -181.181 3.85922 -174.812
lowerback 8.54012 4.21225 5.10446
upperback -3.93712 6.3558 0.241496
thorax -8.44849 2.84252 -3.56749
lowerneck -4.04671 -4.85723 -8.80963
upperneck 7.06302 -6.5821 7.41756
head 3.29571 -3.26423 3.38657
rclavicle -3.44394e-014 -3.97569e-015
rhumerus -18.799 2.78339 -70.8863
rradius 42.0447
rwrist 15.2653
rhand -8.67078 -50.8723
rfingers 7.12502
rthumb 17.2633 -440.126
lclavicle -3.44394e-014 -3.97569e-015
lhumerus -69.0973 21.0837 30.5608
lradius 35.5244
lwrist -10.5567
lhand 7.26004 -27.4462
lfingers 7.12502
lthumb 32.5232 -0.34659
rfemur 13.0532 5.28211 38.5163
rtibia 9.62233
rfoot -16.5784 -23.9385
rtoes -1.55314
lfemur -32.683 -3.81933 -17.1533
ltibia 45.4477
lfoot -17.9377 14.5311
ltoes -8.25783
596
root 9.11279 15.1018 13.0097 -180.972 4.14969 -174.806
lowerback 8.35321 4.33161 5.24203
upperback -3.96317 6.51682 0.166922
thorax -8.33021 2.91687 -3.72615
lowerneck -4.22814 -4.87206 -8.93512
upperneck 6.98606 -6.58723 7.61918
head 3.31385 -3.25735 3.46444
rclavicle -4.87519e-014 -1.98785e-015
rhumerus -17.9963 3.18028 -70.6048
rradius 42.627
rwrist 15.001
rhand -7.7092 -51.8235
rfingers 7.12502
rthumb 18.1886 -440.993
lclavicle -4.87519e-014 -1.98785e-015
lhumerus -69.5539 20.8603 29.4061
lradius 35.8773
lwrist -9.81239
lhand 8.23735 -27.129
lfingers 7.12502
lthumb 33.4527 -0.225381
rfemur 15.443 5.25691 38.5507
rtibia 5.72091
rfoot -14.6727 -23.7367
rtoes -1.14824
lfemur -32.783 -4.21397 -17.1442
ltibia 42.665
lfoot -17.2081 14.6473
ltoes -6.99307
597
root 9.11037 15.1091 12.8503 -180.925 4.39475 -174.713
lowerback 8.37166 4.37741 5.57711
upperback -3.98372 6.61505 0.0964612
thorax -8.31062 2.9446 -3.99944
lowerneck -4.37437 -4.87924 -9.02238
upperneck 6.98084 -6.59226 7.79413
head 3.34552 -3.25245 3.52836
rclavicle 6.31141e-015 -5.1684e-015
rhumerus -17.1408 3.61405 -70.3947
rradius 43.137
rwrist 14.939
rhand -6.97437 -52.6914
rfingers 7.12502
rthumb 18.8955 -441.794
lclavicle 6.31141e-015 -5.1684e-015
lhumerus -70.0537 20.5845 28.1987
lradius 36.2419
lwrist -9.04059
lhand 8.21207 -26.8783
lfingers 7.12502
lthumb 33.4286 0.0304715
rfemur 18.9078 5.14925 38.598
rtibia -6.36111e-015
rfoot -11.6242 -23.3138
rtoes -0.846773
lfemur -32.6805 -4.93129 -16.9777
ltibia 39.9505
lfoot -16.6712 14.9088
ltoes -5.19325
598
root 9.11028 15.1185 12.6904 -180.739 4.66098 -174.706
lowerback 8.2378 4.46053 5.77018
upperback -4.06367 6.74145 0.0170985
thorax -8.27689 2.99525 -4.19623
lowerneck -4.27763 -4.85414 -8.95863
upperneck 6.7062 -6.54702 7.75648
head 3.24011 -3.22918 3.51359
rclavicle 1.37161e-014 -1.98785e-015
rhumerus -16.3248 4.07081 -70.1292
rradius 43.5564
rwrist 15.0387
rhand -6.90381 -52.8223
rfingers 7.12502
rthumb 18.9633 -441.918
lclavicle 1.37161e-014 -1.98785e-015
lhumerus -70.4211 20.1926 27.2147
lradius 36.5176
lwrist -8.18668
lhand 7.1863 -26.5917
lfingers 7.12502
lthumb 32.453 0.522335
rfemur 19.4008 5.09597 38.6214
rtibia -5.40694e-014
rfoot -11.8766 -23.3345
rtoes 0.256097
lfemur -32.7151 -5.94573 -16.7284
ltibia 37.353
lfoot -16.6092 15.2651
ltoes -3.81358
599
root 9.1108 15.1294 12.5297 -180.454 5.04291 -174.783
lowerback 7.99146 4.60606 5.84088
upperback -4.13621 6.93067 -0.0450618
thorax -8.177 3.088 -4.30282
lowerneck -4.17763 -4.83798 -9.02217
upperneck 6.33702 -6.49937 7.74771
head 3.111 -3.2053 3.52909
rclavicle -7.59357e-014 -3.10104e-014
rhumerus -15.4827 4.48247 -69.7601
rradius 43.8829
rwrist 15.0811
rhand -7.52084 -51.9271
rfingers 7.12502
rthumb 18.3698 -441.08
lclavicle -7.59357e-014 -3.10104e-014
lhumerus -70.7162 19.9404 26.2934
lradius 36.733
lwrist -7.46794
lhand 6.37396 -26.2735
lfingers 7.12502
lthumb 31.6796 0.99618
rfemur 19.7986 5.19325 38.5308
rtibia 7.31528e-014
rfoot -12.1025 -23.3278
rtoes 1.91684
lfemur -32.8524 -7.23189 -16.3581
ltibia 34.9508
lfoot -17.0755 16.0726
ltoes -4.59734
